<?xml version="1.0" encoding="UTF-8"?>
<svg version="1.1" viewBox="0 0 1600 1580" width="492" height="486" xmlns="http://www.w3.org/2000/svg">
<path transform="translate(0)" d="m0 0h1600v1580h-1600z" fill="#1A2732"/>
<path transform="translate(400,215)" d="m0 0h438l86 1h97l24-1 7 15 8 18 8 15 10 14 11 14 12 13 8 8 8 7 9 8 10 8 10 9 11 9 7 7 20 15 13 9 20 12 20 8 16 4 1 2-2 17-1 29v164l-4 1h-111l-31 2-15 3-12 4-16 8-9 5-16 12-13 12-9 10-9 16-5 12-6 19-6 25-2 20v15l3 21 5 19 7 19 10 19 10 14 8 10 12 13 12 11 13 10 17 10 10 4 14 3 9 1h76l57-1v34l-1 234-9 3-17 6-16 8-16 9-21 14-10 8-10 9-41 41-5 4-7 8-9 11-8 13-14 25-15 30-4 5h-13l-33-2h-108l-308 1h-185l-1-276v-452z" fill="#62C6C4"/>
<path transform="translate(0)" d="m0 0h1600v1580h-322l-2-6 5-9-5-4-1-3 1-2h7l-3-5-5-5-1-3 3-1 2 1h5v-2l-5-2 2-4 5-5 3-2h3l2-6v-5l5-2 1-1-1-6 4-5 9-4 3-3 5-1 1-2 5-2 9-1 11-3 5-4 2-5 4-1 1-1-3-1v-3h-2l-1-4 5-4 4-8 5-5h2l1-7 3-7h2l-3-5h2l-1-4 4-2v-2l3-3h-2l-1-3 2-9-3-3 1-11-4-2-1-4 2-9 1-11-4 18-2 6-1 7-2 5-4 8-1 7-4 1-1 5 2 3v3l-6 1-1 2 3-1 2 9-5-2-1-3-5 2-4 8-3 3-4 1 3 10-1 2-7-2-1 4 2 4-1 1h-9l-2 5-4 4-3 1-1 3-12 4-10 8-2-1 4-5 4-1v-2l8-4 3-1v-2l9-6 5-5 5-7h2l2-5 9-13h2l1-5h2l2-4 7-11 5-12 5-8v-2h2l1-5 3-7 4-18 3-15 1-10 2-19 2-8-1-1v-3h2v-2h-2v-20l2-10-2-1h2v-38l-1-2h2l-1-6v-28l-1-4 1-4v-9l-1-6 1-3 1-17v-21h-2v-7l1-10v-14h-2l1-2 1-20h-2l1-7h-1v-5-2-13-2-5-1l1-4 1-23-1-16-1-3h2l-1-5 1-5-2-1v-12-3l-1-3 1-9-1-2v-8h-1v-16h1v6h2l-1-2v-7l3-9 4-5-4 1-3 6-2-1 7-11 4-9 3-11v-13l-3-7-1-2 5 2 2 2v10l3 5v13l-2 6 3-5v-7l2-3-1-14-4-14-7-5-2-10v-10l3-6-1-20-2-7-1-9-1-1-2-26v-7l-1-4 1-5-1-9v-16l-1-9v-30l-1-5-2 1 1-13h-2l-1-4-3 1 1 169 2 11 4 8v2l-2 1-12 1-160 1h-35l-44-1-18-3-15-6-14-10-12-11-9-11-12-21-5-16-2-13v-25l3-19 5-14 9-14 8-10 8-8 14-8 10-4 13-3 9-1 23-1 120-1h88l27 1v-14l1-6 1-17-3-7-1-3 1-4h3l-1-5 1-2h2l1-16v-9l-1-9-1-3 1-5-2-8-1-3-1 55h-1l-2-143v-175l-2-26-5-24-9-26-8-18-6-12-12-17-13-16-9-11-7-7-22-18-18-11-16-8-21-7-19-4-17-2-17-1h-430l-267-1-52-1h-40l-45 2-26 3-21 5-19 7-20 10-18 11-11 9-10 9-7 8-12 14-9 12-12 21-8 19-7 25-4 20-2 18v525h-1l-1-443-1 27v12 4l-1 55-1 1v12 1 20h-3l3 2v41l-2 3h2v10 3l-1 6 1 18-2 2h2l1 16v10l-1 17h-2l2 2v64l-1 9v11l-1 3 1 7v7h-2l2 6h-2v2h2v86 3 50l1 33v33l-1 23-1 40v82l1 45-1 25 1 2-1 25h-2v1h2v28l-1 39 1 16v30l1 11 1 22-1 8 1 13 4 18 4 8 4 13 4 9 4 13 5 8v3h2l2 6h2l6 10 1 4h2l2 5 4 5 2 4-4-2-1-1 4 5 7 12 2 8 5 5v3h2l1 2 3 1v2h2l2 4 2 1v2l9-1 4 2 5 5 11 5 6 2 12 2 4 3 7 3 6 3h12l14 3 17 2 20 4 2 1v3l2 1 17 1 5 1 1 6-4 3-2 7-7-1-10 3-4 1-5 2-4 2v2h-2v3h-2l-1 4h-2v5h-329z" fill="#2D3B42"/>
<path transform="translate(381,93)" d="m0 0h40l52 1 267 1h430l26 2 19 3 21 6 19 8 17 10 16 12 10 9 8 7 10 11 11 14 11 15 8 13 10 23 10 30 4 20 2 26v175l1 62v81l-2 1-5-1h-18l-25 1h-14l-2-6-2-23-1-19-1-196 2-58v-15l-2-17-6-24-6-16-11-21-12-17-11-12-10-8-15-9-20-9-19-6-11-2-11-1h-38l-166 1h-386l-113-1h-132l-19 3-18 6-21 11-14 11-9 9-8 10-14 21-5 11-4 13-3 23-1 32 1 304v720l2 18 5 17 5 13 8 15 12 16 7 8 8 7 13 9 10 5 19 7 12 2 11 1 311 1h319l74-1 87 2h47l18-3 17-5 15-7 14-8 15-11 12-11 11-14 7-12 13-31 7-21 2-11v-63l-1-75v-66l1-154 1-22 2-7 7-2h44l15 1 1 4-1 365-1 26-3 25-6 24-10 24-11 21-10 15-11 13-12 13-12 11-16 12-15 9-16 8-25 10-20 6-21 3-81 1h-163l-85 1h-462l-50-1-21-2-16-3-29-10-23-11-18-12-14-11-13-12-13-16-11-15-8-14-8-16-6-15-6-22-4-24-2-26v-1030l3-24 6-25 5-17 9-20 12-20 8-10 9-10 7-8 9-10 15-12 15-9 23-12 19-7 21-5 26-3z" fill="#FCFDF5"/>
<path transform="translate(752,321)" d="m0 0h11l17 2 21 7 17 9 11 9 8 9 11 17 9 19 5 17 2 19v33l5-1h12l18 2 13 5 11 7 9 8 9 12 6 12 3 11 2 23 3 63 1 27 1 44v24l-2 28-3 18-5 16-7 10-13 14-8 7-22 22-8 7-10 10-2 3h-2l-1 3-5 2-2 8-1 9-1 22-1 231-3 18-6 17-13 32-7 20-9 22-12 27-12 25-8 16-10 18-13 21-12 19h-3l-10-18-8-17-10-18-11-24-13-31-11-26-8-20-17-39-7-19-4-16-2-14-2-201v-192l1-151 1-58v-77l2-17 4-15 5-13 6-12 8-11 7-8 13-10 16-8 20-6z" fill="#1A2732"/>
<path transform="translate(400,215)" d="m0 0h438l86 1h97l24-1 7 15 8 18 8 15 10 14 11 14 12 13 8 8 8 7 9 8 10 8 10 9 11 9 7 7 20 15 13 9 20 12 20 8 16 4 1 2-2 17-1 29v164l-4 1h-111l-31 2-15 3-12 4-16 8-9 5-16 12-13 12-9 10-9 16-5 12-6 19-6 25-2 20v15l3 21 5 19 7 19 10 19 10 14 8 10 12 13 12 11 13 10 6 4v2h-7l-2-2-8-4-7-6-6-4-3-3-2-1v-2l-3-1-7-8-8-7-2-1v-2l-4-2-7-8-12-3-17-4-11-1-13-5-9-1-13-1-9-1-11 3-3 3h-2l-1 4-7 3h-10l-13-4-3 9-2 21-2 13-2 59-1 9h-1v-123l2-15 2-3 5-2 7-8 14-14 8-7 22-22 8-7 7-8 7-11 5-18 3-24 1-18v-24l-1-44-2-53-3-50-2-15-5-13-7-11-6-7-11-9-14-7-6-2-18-2h-17l-1-33-2-19-6-20-11-21-10-14-8-9-10-7-15-8-21-7-17-2h-11l-16 2-20 6-16 8-10 8-5 5-8 9-6 9-7 16-4 12-2 3h-3l-2-6-2-2 4-20-1-7-3-6-2-2-1-4-1 4h-2l-1-2-5-1v-2l-3-1v-2h-6v-4l-2-1v-3l-2 1 1 4-5 5h-2l-1-6 1-4v-3h1v-2h-3l-1 2v-3l-5-1v-2h-2v-2l-3 2h-8l-4-6 1-4 3-1h-7l-1-4-2-3-2 1-2-1-1 2v-4h-4l-5-5v-4l-5-3-3-3-2-1v2l-2 1h4l-1 4h-2v3l-4 1v-7h-5l-1 2-2-1v-4h-6l-4 2v2l-4 1-3-6h-3l-4 2-3 1-6-4v-2l-8 3 2 8-5 2-4 2-4 1-1 6-1 1 1 6-2 4-5-2-1 1 3 1 1 4-4 1v2h-4l-1 8 2 1-5 12h-2v2h-2v7l2 4h-2l-2 3-3 3-1 4h-2l-1 6 2 2-1 3-3 2-4 20-3 3h2l1 5v3h-2l-1 4-2 5v13l2 2-4 4h-3v5l-2 1 1 2-1 2 2 1h-2l-1 6 1 6-3 1v2h-2l-1 3 2 6-4 4h-2v-2h-3v-2h2v-5l-2-1v-4l4-4v-3l-2-3 1-5-3-1 1-5-1-12 1-5-6 1-5-1v-5l7 1-3-16-1-4h2l1-4h2l-2-5-4-3v-9l4-5 1-4-3-3 2-6 2-5v-13l3-8 1-7 2-10h2v-6l-1-4 3-9v-7l2-6-1-3v-1l-5 5-1 5 2 3-4 6-2 9-2 3-1 9h2l2 6-3 4 1 8-2 4-2 11-1 15h-2v5l-7 1 1 4 3 3-2 1-1 3h-4l-2 9-4 9-2 15 1 15-1 16v17l-1 8v35l1 21v25l2 10v16l-1 3 1 7-2 29-1 10v68l-1 21 2-2v18l-1 8-1 1-1 10-1 28v49l1 25v44l-1 8v15l-1 7v15l-2 40v49l-1 4v11l1 8-1 2 1 6v21l-1 3v33l-2 20h-1l-1-8-1-26v-452z" fill="#70D6D0"/>
<path transform="translate(339,214)" d="m0 0h5l1 1 1 8 2 76v1098l-1 1h-16l-13-2-14-7-10-8-8-9-8-13-1-4-1-411v-670l3-9 10-14 9-10 13-13 13-10 8-3z" fill="#70D6D0"/>
<path transform="translate(801,261)" d="m0 0 7 1 10 4 1 4 6 2 3 4v3h6l2 1 1 4-6 2 1 2 4 1 3 4v2l5 1 5 3v2l10 1 6 5 5 3 2 2 3-3 3 1 1 7 5 2 1 3v11l5 2h4l1 3h-3l8 16v2l2 1 3 2 3 1v-2l5-1 6 4v3l3 1 1-4 4 1 2 4h7l4 3-5-5-8-4-3-3-7-3-4-8-5-3v-2l-2-1 2-4-3-2v-2l-4-1-4-13v-2l-4-2 1-2-3-2v-2l5-1v-5l-1 1h-3l-1 2-1-5h-5l4-4 3-2v-2l6-4 3-3 4 2 2-2 8-1 3-2 10 1 1-2h4l1 2 5-1 2-1v2l3-1h3 3l2 4 7 3v2l4-1v-3l3-1 2 5 5 1v-2h11l2 1 5-1 2 4 11 5h8l2 3h5v2l7 2 5 2 3 2 2 1 2 2 2 5 6 8 4 4 3 6 4 5 10 8 2 1v2h2v2l5 2 3 1 3 7 4 2 5 5 1 3 5 3v2l5 2 4 4 1-1-3-4v-2l-2-1-3-1-3-3-1-8-4-2-3-5-4-2-1-6 1-2h-5l-4-6v-2l-4-2 1-4v2l8 4-2-5-9-7-1-6 4 2 3 2v2l4 1 4 4 4 2v2l4 2 7 9 5 3 8 6 4 5 6 3 2 2v3h3v2l5 2 6 5 15 4 6 3h9l1 2 12 3 8 5 12 5 5 4 3 2v2l3 1 1 4-1 6h2l1 2 3-2v2l4 1v2h2l1 3 5 1 2 6-1 3h-2v2l4 1 5 5 2 3 2 9 1 17 2 14v47l-1 3v11l-1 11-1 16 1 23 1 1v11l-3 3h-2v3l11 1 1 2h-114l-37 2v-1l5-1v-1h-14l-1 1h-7l-4 2-6 1-10-1-6-7-10-6-11-4-7-2-11-4-4-4-8-2v-2h-2l-5-5-5-7-5-12-4 2-1-2-3 3-3-4v-8l1-5v-29l-3-8-1-9v-9l2 2 1 3 1-8 2 2-1-6-5-18-6-16-4-10-3-5-6-9-6-6v-2h-2v-2l-5-2-10-7-9-7-6-8-4-16-4-2-7-6-7-9-4-4-3-6-2-1-4-8-3-8-2-6-5-5v-2h-2l-7-8-5-3-4-3v-2l-6-1-5-7-6-3-7-5-5-1-3-5-1-5-7-3-2-5-5-1-9-7 1-4h2z" fill="#62C6C4"/>
<path transform="translate(147,333)" d="m0 0h1l1 36 1 451v497l2 26 4 24 6 22 6 15 8 16 6 11 10 14 13 16 7 8 10 9 12 9 15 10 21 11 25 9 13 4 19 3 14 1 50 1h462l86-1h162l81-1 21-3 26-8 26-11 16-9 12-8 14-11 12-11 13-14 10-13 9-15 10-19 10-25 5-21 3-25 1-26 1-120 1-238 3-3 1-7 4-6 6-2-6 8-2 7v9h-2v6h1l-1 12 2 1v7l-1 6 2 1-1 2-1 12 3 1-1 10-1 1h1v7l1 11-1 25v1l-1 4h1v7h-1v10l1 4v1 7l-2 3h2v21 1l1 17-1 11 2 3v27l-1 11-1 7 1 7v8 4 65l-1 16-1 10v8l-1 6h2l-1 4 1 4-1 2v8l-2 3-1 17-2 9-1 9-6 21-6 15-5 8-5 11-6 10-3 4h-2l-1 5h-2l-2 4-7 11-7 8-4 6-10 7h-2v2l-8 5h-3v2l-5 3-1 3 10-8 12-3 1-4 5-2 4-7 9-1-2-4 1-4 3-1 5 3-1-4-1-8 6-3 2-5 3-5 5-1 2 3h3l-2-6h-2l1-3h6l-3-7 2-4 3-3 3-9 4-9 2-10 3-10 2-12 2 1-1 12-2 9 2 4 2 1 1 6-1 5 3 3-2 12h2l-1 3h-2l1 3-4 2-1 4 2 4h-2l-3 10-1 4-4 3h-2l-2 6-2 5-5 4v3h2v3l4 1-4 4-3 1-1 4-5 3-11 2-1 2-1-1-8 1-4 1-2 4h-6l-1 3-9 4-3 4 1 7-7 2 1 6-3 5-5 2-2 1-2 4-4 4 5 2v2l-6 1h-2l2 5 5 4v3h-7l1 5 5 4-5 9 1 6h-949v-5h2l1-4h2v-3h2v-2l7-5h5l8-3 5-1h3 2l1-6 5-2-1-6-22-1-4-2 2-1v-2l-19-3-11-2-20-3-3-1h-12l-9-5-7-3-7-2-8-1-16-8-4-3v-2l-8-1h-5v-2l-4-2v-3h-2v-2l-4-1v-2h-2v-3l-3-1-4-6-1-6-7-12v-2l-3-1-2-3 1-3 3 5h2l-5-6-2-3v-3h-2l-5-9-2-5h-2l-2-3v-3h-2l-6-11-5-16-4-9-3-10-4-8-2-7-2-11-1-16 1-10-1-17-1-18v-31l-1-9 1-50v-10l1-6h-2v6l-2 1 1-9 3 1v-26l-1-2 1-26-1-44v-89l1-41 1-23v-30l-1-38v-39-3-67l1-10-2-1h2v-5l-2-1h2v-2h-2v-2h2l-2-3v-3h2l-1-12-1-4 1-4v-9l1-15v-56l-1-3h2l-1-5 1-12v-26h-2l1-3-1-22 1-4v-8l1-2h-2l1-9v-35l-1 1-1-3 2-1v-15h-1v-7h1v-11l1-5 1-50v-4z" fill="#1A2732"/>
<path transform="translate(1259,677)" d="m0 0h88l22 1 3 1-1 5v169l2 11 4 8v2l-2 1-12 1-160 1h-35l-44-1-18-3-15-6-14-10-12-11-9-11-12-21-5-16-2-13v-25l3-19 5-14 9-14 8-10 8-8 14-8 10-4 13-3 9-1 23-1z" fill="#70D6D0"/>
<path transform="translate(708,560)" d="m0 0h98l2 1 2 110v223l1 103v39l-5 1h-97l-1-1v-34l-1-36v-399z" fill="#FBFDF5"/>
<path transform="translate(327,657)" d="m0 0h3l-1 8 2 1 2 9-1 5-1 1-1 7h2l1-6h2l1-9 1-16h1l1 14v12l2 18v9l1 10 1 5v8l-1 4 1 8-1 1v29l1 18-1 12-1 31-1 6v21l1 3-1 4 1 8v14l2 28v2l1 8v8l1 3 1-10v-25l1-80h1v571l-1 1h-16l-9-1v-1h6l-3-3-10-3-9-6v-2l-4-2-3-3v-2l-3-1 2-1 5 3 3 2v2h3l3 3v2l14 2 8 2h5l1-2v-6l-2 4-3 1-2-1-18-1-5-5-4-2v-2h-2l-1-4-5-2-4-2-4-4v-2h-2l-3-6-1-5h-3v-2h2l-1-4-2-2 1-1 1-15 2-48 1-21v-15l2-6 2-16h2l1-5 5-1 2 2h3v-8l4-2v-6l2-2h5l1-3-3-9v-5l4-1 2 1v-2l-3-1h3l1-4 5-2 1-1-5-1 1-3h-2l3-13-1-2 6-1 1-4-1-7h-4v2h-2l-1-9-1-2h5l3 2h4l-1-4-6-4-2-4-2-1v-6l-1-7 5-1 4 5h4l-3-5-5-1v-2l-4-2-7-5-2-4-2-1-1 4-3 3h2l4 9 1 4-3 5 2 3v10 4l-1 4 2 6-1 8 1 3-2 3 1 2-2 3-2-1 1 4-2 1-2 7-5 1h8l-1 3h-2l-1 3-4-3-4 2-5-4-1 10-2 18-1 27-1 17v24l-1 4v13l-3 29h-1v-35l1-17 1-5v-28l1-4-1-2h2l-1-4v-16l1-6v-18l1-4-1-5 1-5v-45-3l1-5-1-2 1-6-1-7 1-8-1-10-1-19v-44l-1-10v-20h1l1-10-1-14 1-5v-27l1-11-1-2 1-6h1l2-10v-11l3-7 4-5-2-5v-3h2v-8l-4-1-1-8-2-1v-6-3l-1-20v-17l-1-15v-22l1-5v-26l1-11v-19l4-1 1 3 3 1v16h4l5-8 1-3-3-1v-3l5-3v-14l2-4 1-5v-6l5-1 2 1-1-2-3-1 1-7-4-2 1-4 3-4 3 5 6 2v-6h-2l2-4h2z" fill="#62C6C4"/>
<path transform="translate(387,263)" d="m0 0 3 1 1 5 2 8 1-6h1v17l-1 4 1 6-1 13 1 10h1v14l-1 4 1 5-1 1v24l1 47-1 5 1 6-1 16 1 7v14l1 1v56l-1 17h-1l-1 21 1-1h1v9l-2-1v9l2-1v35l1 13-2-2v3h2l1 13-1 12h-1l-1-15v41l-1 16v41l-1 45-2 33v16l-1 19 1 5 1 31 2 4-1 10 2 5v16h-2l1-6h-2v25l-1 11v29l1 24v22l-1 13-1 12v11l-2 13-1 5 2 7-1 2h-2l2 6v4l-3 1-1-4-1-9-3-3 1-4-2-11-1-7h-3l1-8 6 1v-2l-4-1-3-6 1-6 1-5v-3l-3-1 1-5 2-5-2-3-1-9 2-8-2-5 1-6 2-1-1-7-2-6 5-10-2-8h-3v7l-2 3-3-1h2v-7l-3-1 2-4-4-1h-3l5-5h2v2l7 2v-5l3-4h-3l1-7 1 2 3-1 1-4-1-3-5-1v-10l2-1-1-4-1-7 4-2-3-6v-3l-3 3v-6l1-4 1-6-1-10 3-1-1-10v-8l1-6h7l-2-6h-3l-2-10-3-5v-18l-2-8-5-1v-7l-6-1-4 1-2-3-2-28-1-5v-38l1-16v-19l1-14v-68l-1-4v-47l-1-20 1-13-1-2v-10l1-3v-8l-1-5 1-4h-1l-1-8v-63l-1-12 1-5v-16l2-12v-21l1-16v-13l-1-12 1-9 2-13 2 1-1-6 3-3 5 5v2l8 1 1-4 3-3 5 1-1-3z" fill="#2D3B42"/>
<path transform="translate(755,560)" d="m0 0h51l2 1 2 110v223l1 103v39l-5 1-27-1-1-122-1-57v-296h-22z" fill="#EBF3EF"/>
<path transform="translate(324,152)" d="m0 0h22l54 3 27 1 25 2 3 3v1l-109 1-24 3-15 4-16 7-16 9-13 11-7 7-8 10-14 21-5 11-4 13-3 23-1 32 1 304v720l2 18 5 17 5 13 8 15 12 16 7 8 8 7 13 9 10 5 19 7 12 2 20 2 60 2-1 2-3 1-39 3h-36l-20-4-26-9-26-12-4-4-4-11-6-10-13-30-6-13-4-13-2-15v-74l1-61v-156l-1-31-1-16v-164l2-61v-49l-2-32-2-18-1-23 1-49 2-39 2-56 1-56-1-89-1-47v-64l5-33v-11l-4-1v-5l3-2 1-8 4-4 4-6 9-5 13-3 4 2 8-1 17-8 13-8 15-8 13-5z" fill="#FAFDFC"/>
<path transform="translate(388,1535)" d="m0 0 27 1 22 2 27 2h21l26-2 7-1h13l16 1h17l24 2h38l5-1 6 1 9 1 2 1 5-1 6 1h10l10 1 7-1 11 1 3-1 14-1 5 1 1-1h24v2h16l3 3 4-2 7 1 8-3 6-1 8-2h23l3 1 1-2h27l4 1 3-1 25-1h14v1l-12 2-4 3-13 1-5 1-2 1h-5v3l-3-1v-2h-11l-1 4h-6l-1-2h-5l-3 4-7 1-4-1-2 5-5-2h-6-3-2l-1 4-6 1 1 4-4 1v-2l-7-1v4l3 2 4 4 7 2-2 6h-321l-1-7-2 3-3 3-4-4 2-1v-3h2l1-3h4v-4h-2l1-5-2-2-5-1-5-3-1-3 4-1 6 4v2l10-2-1-4-5-3-11-2-2 5h-2l-2-3-5 1-1-4-8 1-7-4-4-1-1 3h-3l-2-3h-8l-25-3z" fill="#2D3B42"/>
<path transform="translate(1249,1255)" d="m0 0h4v12l-2 24-2 36-3 11-7 15-8 13-12 13-10 9-14 8-12 4-12 2-17 1h-40l-7-1 2-9 8-18 10-16 11-13 7-8 12-11 8-7 3-3h2l2-4 19-19 7-8 7-7 16-12 21-10z" fill="#62C6C4"/>
<path transform="translate(708,560)" d="m0 0 69 1 1 57v239l1 57 1 121-1 1h-64l-4-5-1-3v-36l3-5 2 2 3 33 3 4h8l17-4 4-3 1-9 4-11 3-9v-8l3-5 1-11v-12l-1-18v-21l-2-17v-8l-2-6 1-10-1-9v-12l-2-27-1-7v-19l2-24 5-27 1-11v-15l1-5-4-25-2-10-1-25v-32l1-25-2-10v-15l-5-5-9-2-10-1h-9l-5 1-1 4-1 25-2 10-2-1v-2h-2l-1-10z" fill="#FDFEFD"/>
<path transform="translate(1149,217)" d="m0 0h23l10 2 14 6 17 12 10 9 9 11 7 10 7 15 2 6 2 18v49l-8-1-12-5-14-9-14-11-12-11-32-32-14-11-12-11-9-9-10-13-8-14-5-10z" fill="#62C6C4"/>
<path transform="translate(862,521)" d="m0 0 8 1 16 3 12 1 1 1 1 20v149l-1 20-2 12-5 10-9 10-7 8-9 10-5 5h-2l-1-24v-81l1-133 1-10z" fill="#F9FDFC"/>
<path transform="translate(1145,727)" d="m0 0h14l13 5 11 8 8 7 9 11 5 10 1 4v10l-3 12-9 13-9 10-7 7-11 6-9 2h-12l-14-4-13-10-10-9-9-10-4-8-2-6v-11l4-13 7-11 9-10 10-7 11-4z" fill="#1A2732"/>
<path transform="translate(1150,1534)" d="m0 0 16 2 10 1 17 2 4 2h6l5 1 4 1 1 5 2 2 2-2 3-1 1 5h-4l-4 4-6-2-2 1-2 11-3-3-4 1-4 4-11 3-2 1v-2h-6v-2h-2l1 3-5 1h-3l-1 1-6 1h-14l-4 2-2-2-8-1h-8v-2l-11 3-4-1v-2h-2l-1 2v-2l-4 2-7-1v-2l-6-1-1 2-3-1-4 4-4-2-11 1-1-2-7 1-2 1h-11l-1-2h-5l-1 2-10 1-3-4v-4l-5-1v-2l-4 2 3 4v3l2 1-2 1-7-1v-2l-3-1v-2l-4 1v-2h-2l-1-5h-2v2h-2l2 5v5l-4-1-2-7-4-2h-8l-3-3 2-4-1-2-2 2 2 1-4 4-5 1-1-2 1-1h-4l-2-4-2-2v-4h-3v2l3 5h-2l-1 2-3-3v-3l-5-1-1-2-6 1 2 6h-3v2h-8l-1 2-2-1-3-5v2l-4 2 1-3-5-3v-5l7-1 5-6 6 4-1-3 4-1 5 1 6-1h10l7-3 2 3 8-1 5 2 13-1 4 1 6-2 7-1 3 2 3-3h9l15-2 5 1 3-1h14l2-1h10l13 1 18-1 11 2h10l10-2z" fill="#2D3B42"/>
<path transform="translate(707,1086)" d="m0 0 29 1h70v11l-3 20-6 23-10 32-16 40-9 25h-2l-5-12-29-85-11-32-8-19z" fill="#FBFEFC"/>
<path transform="translate(1369,991)" d="m0 0h1v340l-3 25-6 24-10 24-11 21-10 15-11 13-12 13-12 11-16 12-15 9-16 8-25 10-20 6-11 2h-42l-1-3 19-3 17-2 17-4 21-8 20-9 12-7 14-8 15-10 9-7 8-9 9-15 3-7 1-9 5-8 8-4 5-8 4-9 4-6 4-10 6-17 1-5v-23l-2-11v-48l2-11 5-71 1-18 2-15 3-33 2-50 1-56 2-19z" fill="#FBFEFC"/>
<path transform="translate(1328,756)" d="m0 0 5 3 5 1 3-2h3v8l3 1 2 10 7 3 2 1v11l3 9 2 8-1 7v20l-3 12-4 5-3 8-5 3-5 2-19 2-14 1h-15l-16-1-9-1-3 2-5-1-11-2-19 1 2-2 2-1-2-1 6-3 18-6 2-4 5 1 1-5 5-5 2-5 5-8h2l2-5 3-3h2v-2h2l1-7 5-7 4-7 5-2 3-12 1-2h2l1-6 7-7v-1l2-4 3-1 1-3h4z" fill="#62C6C4"/>
<path transform="translate(755,560)" d="m0 0h51v1l-22 1 1 3 3 1 5 5 3 1 2 19v31l-1 33 1 25 1 12v17l-1 28-1 16-2 10-3 17-2 4v9l-2 9v44l3 36 2 5 1 12 1 9 1 10-1 9-1 13-1 10-1 11-1 3-2 23-1 14-1 2-1 14-4 18h6v1h-9l-1-122-1-57v-296h-22z" fill="#AAE3E3"/>
<path transform="translate(1212,101)" d="m0 0h7l17 5 19 8 17 10 16 12 10 9 8 7 10 11 11 14 11 15 8 13 10 23 10 30 4 20 2 26v175l1 62v81l-2 1-5-1h-18l-25 1h-14l-2-6v-26l2-3h2l4 12 2 9 3 3 2 1 28-1 10-1 3-3 1-3v-48l-1-16v-17l-1-48-3-31-1-61v-29l1-54v-27l-3-16-4-10-6-24-7-16-8-14-10-13-9-11-12-13-15-12-13-9-12-9-10-7-15-9-8-2-12-4z" fill="#F5FCFA"/>
<path transform="translate(752,377)" d="m0 0h18l10 4 12 9 8 9 6 13 2 9 1 10v13l-17-2-9-1-75-1-2-1-1-3 1-17 5-12 8-10 7-7 14-9z" fill="#FBFEFD"/>
<path transform="translate(1304,1206)" d="m0 0 4 3 2 28 1 6 2 45v14l-2 33-4 28v21l1 4v13l-6 18-8 7-13 5-14 1-10 4-16 8-21 10-22 7-8 2-18 2h-18l-98-3-18-2h-40l-3-2h176l18-3 17-5 15-7 14-8 15-11 12-11 11-14 7-12 13-31 7-21 3-17z" fill="#FBFDFC"/>
<path transform="translate(748,243)" d="m0 0 5 1 1 4 3 1-2 5h7l6 1v5l3 1v2h-2l-1 5-4-2h-4l2 2v6l-4 7-4 3h-5v-2l-6 1v3l-6 2-8 1-1 1-7 1-3 6v3l4 3v2l12 2 4 3-4 3-9 3-4 2-7 2-2-2 1-4-7 1-8 6v2h6l-1 2-7 3h-3v2l-8 4-4 1-4 7-5 9-4 7-5 10-2 6-1-4 3-12-1-4h-6v-4h-2l-2-4 1-8 6-10h2l-1-5 6 1v-2l3-2 3-5h2v-2l11-6 1-1-4-2 4-2 4-4 3-1-3-1 1-3 15-5 9-4 7-2h9l9-6 3-1-9-3v2l-2 1h-8v-2l-5 1-1 1-9 1v2l-4 1-4-4v-2l-8 4-6-1-2-4-6-1 5-8 7-4h3v6h5l2-4 11-3 4 2 1 5 3-3 5 2 7 2 2-5 10 1 1 4 5-1 2-1 1-4-5-3v-4h2v-4l-2-3z" fill="#62C6C4"/>
<path transform="translate(151,1325)" d="m0 0 4 2 2 15 2 6 2 11 4 15 7 20 5 12 12 19 13 17 11 14 6 7 11 8 16 9 13 8 17 9 16 7 20 6 17 4 44 2 34 4 1 2-13 2-6 1h-62l-19-3-33-11-23-11-18-12-14-11-13-12-13-16-11-15-8-14-8-16-6-15-6-22-4-24z" fill="#F9FDFC"/>
<path transform="translate(711,491)" d="m0 0h102l2 1-1 25-1 1h-94l-15 1-2-2v-23l3-2z" fill="#6FD5CF"/>
<path transform="translate(336,95)" d="m0 0h59v1l-28 2-16 2-25 3-28 6-24 8-16 8-12 7-16 12-10 10-8 14-7 14-2 5v5l1 2-2 3-10 4-5 4-11 14-9 19-7 21-5 19-1 29-2 9-2 1v-40l3-19 7-28 6-16 8-16 8-14 9-12 10-11 7-8 9-10 15-12 15-9 23-12 19-7 21-5z" fill="#F8FCFB"/>
<path transform="translate(1183,153)" d="m0 0 17 1 13 4 21 8 27 13 7 8 9 14 9 17 11 24 6 18 1 16-4-1-8-24-12-23-12-17-11-12-10-8-15-9-20-9-19-6-11-2-19-2-18-1-2-4 20-4z" fill="#FAFDFC"/>
<path transform="translate(363,1089)" d="m0 0 3 1 4 6 5 3v9l1 5-4 3v4l3 1-2 7 2 4 2 11-6 2 3 9 1 4 2 1-8 3 5 6 2 5 1 3h-2l-1 2-4 2 3 3 2 5 2 1v7l-7-2h-2l-1 2-2-1v2l5 1 2 7-4 9-5 2h-3v7l-2 10-1 22-1 15-1 27-2-1v-16l1-26 2-42v-51l-1-5 1-4v-3l-1-17v-14l2-4 3-2 1 3 2 1-1-7 1-6-5 4-2-1-1-16 2 1 1 13 2-6-2-4z" fill="#2D3B42"/>
<path transform="translate(346,225)" d="m0 0h1l2 50v7l2 4-1 1v63l-1 55v886l-1 73h-1v-1065l-1-36z" fill="#2E3C43"/>
<path transform="translate(720,1087)" d="m0 0h86v11l-3 20-6 23-10 32-1-4 2-9 1-2v-8l-6 1-2 6-2 5h-2l-2 10-4 14-2 8h-1l1-10 7-31 4-26 3-35 8-1v-2h-56l-15-1z" fill="#E5F1EE"/>
<path transform="translate(512,89)" d="m0 0h6l1 2-3 1h23l-3-2 8-1h8l5 1-1 2h127l9-1h20l9 2h11l-4-2 7-1 9 3h102l1-1 11-1 2-1h7v2l-8 1h42l5-1 9 1 6-1h6l4 1 2-1v2l3-1h26 3l64 1-3 2h-286l-267-1-13-1-30-1v-1h48l1-2z" fill="#1F2D36"/>
<path transform="translate(705,494)" d="m0 0h24l3 1-1 4-2 5 34 1 38 2h7l5-5v14l-27-1h-55l-17 2h-7v2l-4-1v-23z" fill="#AAE3E3"/>
<path transform="translate(366,797)" d="m0 0 2 1v9l2 6 4 1-1 9-1 8v8l-1 5 3 5v9l2 1-1 3-3 1-1 8h2v2h-4l-1 7h4l2 3v3l-7 2 2 7 5 3-1 4-4-2-1 9-4 2-2-7 1-9h-2l-2 1-2-8-1-30v-18l2-2h4v-6l-4 1v4h-2v-23l1 3 3-1 1 5 3-3v-5l-4-4 1-5z" fill="#2D3B42"/>
<path transform="translate(1368,258)" d="m0 0 2 3 2 5 1 16 2 1 1 3 1 22-1 4v7l2 2v27l1 27-1 7 1 1v11h-2l1 5-1 5 1 4-2 4 1 4 2-1v15l-2 1-1 3h2l-1 5-1 7 2-1v25l-1 9v26l-2 18h-1l-1-11 1-11-2-29v-30l-1-138-2-26-2-11v-8z" fill="#1C2934"/>
<path transform="translate(388,225)" d="m0 0h1l3 17 2 16v8l-2-2-2-9v-2l-3 1-3 6-7 1-1 5v6h-3l-6-9-6 1-3-3-1 3h-2l-2 13-3 2 1-8 1-7 1-1 2-25 3-7 1-1 9 1 1 3 4-1 5 1h6z" fill="#2D3B42"/>
<path transform="translate(1212,1216)" d="m0 0h2v2l-18 10-19 12-16 12-12 11-40 40-5 4-7 8-9 11-8 13-14 25-15 30-4 5-12-1 1-3 7-2 4-4 4-7 7-14h2v-5l6-9 2-5h2l2-5 8-11 2-5 4-6 2-1 7-11 3-3h3l1-5 8-8 8-6 8-10 18-18 8-7 3-1 1-3 8-6 7-4 9-5 15-9 11-6z" fill="#70D5D0"/>
<path transform="translate(1256,110)" d="m0 0h2v2l7 2 6 3 10 6v2l5 2 10 6v2l4 2 3 2v2l3 1 1 4 5 2 7 8 4 6 5 4 7 10 3 3v2l3 3 2 6v3l3-1 2 7 3 7 2 4 1 7 3 4v7h-2l-8-18-6-12-12-17-13-16-9-11-7-7-22-18-18-11-8-5 1-2z" fill="#1C2933"/>
<path transform="translate(1056,638)" d="m0 0h2v2l-11 7-11 9-12 11-9 10-9 16-5 6-4 11-8 29-3 14-3 10-5-5-2-7v-7l1-4h-4l2-6 5-5 4-10 3-7 2-5 6-8 3-3 8-16 6-8 4-5h2l1-3 8-5 5-5 10-7z" fill="#A8E3E3"/>
<path transform="translate(305,96)" d="m0 0h13l-1 2-21 4-24 8-22 11-18 11-11 9-10 9-7 8-12 14-9 12-12 21-3 5-1-2 5-10 2-10 5-10 4-6 5-5 7-8 5-6h2l1-3h2l1-3h2l2-4 3-3h2v-2l5-1 2-1 2-4 12-9h2v-2l12-5 3-3 4 1v-2h3l1-2 7-2 2-2 10-3 10-4 11-1z" fill="#1C2934"/>
<path transform="translate(834,1199)" d="m0 0h2v5h-2l1 3-5 13-10 24-3 7h-2l-3 9-5 12-10 20h-2l-1 6-5 8-3 6h-2l-2 5-7 11-3 3-4 7-3 3h-3l1-5 10-16 17-28 10-21 8-16 12-25 12-29h2z" fill="#6FD5CF"/>
<path transform="translate(334,690)" d="m0 0 2 1 3 20-1 26-3 5 1 13-1 3-6-2h-1l-1-5-3 2h-7l2-4 5-2 3 1-3-11-5-1-1-5 2-4 1-8 3-3h2l1-6 3-4-1-7 2-2 2-6z" fill="#70D6D0"/>
<path transform="translate(600,1545)" d="m0 0 6 1 6 5 2 2 2-2 6-1 4 1v2l3 1v3l6-1 6 1 5-3 4-1 1 5-1 3h5l5-2 4 3v2h-7l-5 3h-7l-4-4h-4l-1 2h-3l-4 2-3-2v-3 2l-2 6-9-1h-2l-5 2v-3l-3-1 1-4-3-1-1-3 2-1 2 1-1-2-2-1v-6l-3-3z" fill="#1A2732"/>
<path transform="translate(1139,765)" d="m0 0 11 2 8 7v2l3 1 3 9-2 4h-14l-5-1v2l-10-3-5-4-1-3v-7l4-6z" fill="#2E3C43"/>
<path transform="translate(1283,1496)" d="m0 0h2l-2 7-6 2v7l-3 2 1 5-5 3-8 4-3 1-2-2v-3l-6 1-3 2-5 1-9 6-4 2-6-1-6 2-10 2-5-2h-15l1-2 11-1 14-1 20-7 3-2h4v-2l16-8 18-10z" fill="#2D3B42"/>
<path transform="translate(277,1341)" d="m0 0 2 2 4 1v4h-2v2l3-1 4 10v2h2l4 4v2l5 2 4 2 1 4h2v2l4 1 3 3v2l20 1 5 1 2-11h1v13l-2 3-11-1-16-4v-2l-3-1v-2h-3v-2l-4-2-3-1v2l3 1 4 4v2l5 2 4 3 12 4 1 3h-10l-14-7-10-8-8-9-8-13-1-4z" fill="#6FD5CF"/>
<path transform="translate(1253,1535)" d="m0 0 2 3v3l2-1 1-4 3-1 6 3 1 6-4 2h-3v3l4 1 2 2 2-2 3 2 4 1-2 4-6 1-5-2-1 3h-2v-5l-4-1v4l-4-1h-2l-2 2 1 3 3 1-1 3-4 2-4-2v-2l-3-1 2-3-1-6-4 1-2-1v-3l-5 2-2-1-1 2-1-5 1-4h3l2 2 5-4 5 2-1-5 4-2 5 2 3-1z" fill="#2D3B42"/>
<path transform="translate(1100,218)" d="m0 0 21 1-5 6-4 1 2 8 9 13 8 6 3 3v2l4 2 5 5 1 3 4 2 13 12 4 3v2l3 1v2l3 1v2l4 2v2h2l9 11 2 2-1 3-27-27-5-2-13-11-8-7-11-11-10-13-8-14z" fill="#70D6D0"/>
<path transform="translate(731,90)" d="m0 0 9 1 4 2h102l1-1 11-1 2-1h7v2l-8 1h42l5-1 9 1 6-1h6l4 1 2-1v2l3-1h26 3l64 1-3 2h-286l-6-1-2-2-4-2z" fill="#202D37"/>
<path transform="translate(498,96)" d="m0 0h271l-1 2-16 1-21-1-18 1h-144l-26-1h-31l-14-1z" fill="#FEFFFE"/>
<path transform="translate(399,215)" d="m0 0h1v455l-1 112h-1l-1-50v-3-11l-1-10v-5l1-1v-44h2z" fill="#2E3C43"/>
<path transform="translate(561,1540)" d="m0 0 4 1v2l3-1 7 3v2l3 1-1 5-2 1-7-3-3 1-3-2 1-2-6 5v2h-3v2h-2v2l-6-1-2 1-1-4 7-4-6-2-4 5h-8l-3-2v-2l-7 2-3-1-1-4-3-2 1-2 5-2h5l8 3 1-3h5l1 1 11-1 6 1z" fill="#1A2732"/>
<path transform="translate(786,397)" d="m0 0 2 2 1 5 4 2 5 10 2 8v8l-4 3-12-1v6l4 1-80-1v-1h73v-17l3-22z" fill="#F1F5F1"/>
<path transform="translate(785,1150)" d="m0 0h4l1 2v6l-2 5-3 15-12 30-5-3-2 4h-1l1-13 1-6 2 2 4-17 4-13h2l1-5 3-6z" fill="#F6FBFA"/>
<path transform="translate(1369,697)" d="m0 0h1v155h-1l-3-37-1-5h-1l-3-19 1-15v-12l3-3v-12l2 1 1 3z" fill="#62C6C4"/>
<path transform="translate(957,620)" d="m0 0h1l1 17 1 38 1 12 2 7 1 23v7l-1 3v8l-5 13-4 5-3-1 4-23 2-28z" fill="#ABE4E4"/>
<path transform="translate(608,216)" d="m0 0h200v1l-26 1h-27v2h-2l-1 2-16-2-6-2-13 1h-8l-13-1-21 1-3 2h-2v1l10 3v3l-10 1v-3l-7-1-5-3-3-3-25-1-4 2-4-2-14-1z" fill="#62C6C4"/>
<path transform="translate(1238,871)" d="m0 0h7v1l11 1 107 2v1l-160 1h-35l-44-1-14-2v-1l24 1h45l57-1 3 1z" fill="#62C6C4"/>
<path transform="translate(1163,393)" d="m0 0 6 1 1 1 16 2 4 1 1 3-7 3 4 1 3 1h5l-2 6h-3l2 2 5 1-1 2h-2l-1 7-7-4-3 6-2 1-3-4h-5l-1-2 10-4 5-5-1-3-7 1-6 1-5-3 2-6-2-1-5-1-6-2-1-4h5z" fill="#70D6D0"/>
<path transform="translate(154,808)" d="m0 0h1l2 23v52l-1 17-2 3-3-4v-76z" fill="#FEFFFE"/>
<path transform="translate(850,216)" d="m0 0h74l81 1v1l-90 1-9 3h-17l-2 1 8 3-1 3h-6l-2-3-4-1-2-2-5-1-12-3-13-2z" fill="#62C6C4"/>
<path transform="translate(503,1570)" d="m0 0h3l2 3 4-2v2h4 22v-2l4 2 1 5v2h-61l2-6h3l6-1 9-1z" fill="#1A2732"/>
<path transform="translate(698,1569)" d="m0 0 6 2 1 2v-3h6v3h2l-1 7h-43l-1-7 5 1 1 3 4-6 11-1z" fill="#1A2732"/>
<path transform="translate(1083,1328)" d="m0 0 2 2-14 25-12 23-9 17-3 4-12-1 1-3 7-2 4-4 4-7 7-14h2v-5l6-9 2-5h2l2-5 8-11 2-4z" fill="#6ED4CF"/>
<path transform="translate(687,91)" d="m0 0h25l9 2 13 1v1h-125v-2l6-1h68z" fill="#1A2732"/>
<path transform="translate(783,1094)" d="m0 0h2v29l-3 23-7 26-4 14-2 8h-1l1-10 7-31 4-26 2-26z" fill="#ABE4E4"/>
<path transform="translate(1166,218)" d="m0 0h13l15 6 15 10 13 11 10 12-1 3-7-6-6-8-8-5v-2l-5-1v-2l-5-1-6-3-10-6-4-4-7-2-7-1z" fill="#6ED4CE"/>
<path transform="translate(400,1344)" d="m0 0h2l2 25 2 6 2 15 3 3 11 3v1l-22 1z" fill="#70D6D0"/>
<path transform="translate(731,514)" d="m0 0h55l24 1v2l3 1h-106v-1z" fill="#67CCC8"/>
<path transform="translate(1248,408)" d="m0 0h5l1 2-2 17-1 29v164h-1l-1-55v-125l2-31z" fill="#62C6C4"/>
<path transform="translate(1312,936)" d="m0 0h37l-4 2-28 4-5 4-3 6-2 10-3 2v-13l1-11 3-3z" fill="#FEFFFE"/>
<path transform="translate(997,1562)" d="m0 0h2v2l2 1-1 2h2v2l4-1 3 3v2h11l1 6 5-2 2 1v2h-34l1-5 1-1v-5l-1-5h2z" fill="#1B2832"/>
<path transform="translate(1372,938)" d="m0 0 1 4 2-2 1 4-3 1-1 240h-1v-245z" fill="#2E3C43"/>
<path transform="translate(164,214)" d="m0 0h1l-1 7-7 24-5 24-1 8h-2v7h-1l-1-14 3-5h-2l2-9 3-5-2-1 1-6 1-1v-7l4-14 4-6h2z" fill="#1D2A35"/>
<path transform="translate(731,90)" d="m0 0 9 1 4 2 102 1-1 2h-105l-6-1-2-2-4-2z" fill="#222F39"/>
<path transform="translate(858,1137)" d="m0 0 2 2-4 14-5 12-4 11-7 17-3 1 1-9 8-22 10-24h2z" fill="#6ED3CE"/>
<path transform="translate(1332,1452)" d="m0 0 2 4 2 6-1 2-7-2-1 4 2 4-1 1h-9l-2 5-4 4-3 1-1 3-12 4-10 8-2-1 4-5 4-1v-2l8-4 3-1v-2l9-6 5-5 5-7h2l2-5z" fill="#2E3C43"/>
<path transform="translate(1089,158)" d="m0 0h44l2 1v3l-9 1h-27l-23-2 2-2h8z" fill="#FEFEFD"/>
<path transform="translate(1138,391)" d="m0 0 9 1 2 4 2 1-1 1h-5l1 2 6 1 13 1v3l-5 2h-8l-1 2-1-1-8-1-3-2-2-5h5l-3-5z" fill="#70D6D0"/>
<path transform="translate(194,1463)" d="m0 0h2v3l4 2 8 11 3 2v2l4 1v2l4 2 8 7 10 6 12 5 8 5 4 2-8-1-22-11-11-5-6-8-3-1v-2h-2v-2h-2v-2h-2l-6-9-2-5-3-1z" fill="#2E3C43"/>
<path transform="translate(1249,1254)" d="m0 0h5l1 2-1 40-3 29-4 14-3 6-1-3 4-10 1-5 2-36 3-36z" fill="#2E3C43"/>
<path transform="translate(1137,771)" d="m0 0h7l9 6 2 5-1 1h-17l-4-4 1-6z" fill="#62C6C4"/>
<path transform="translate(649,538)" d="m0 0 4 5v18l-1 19-1 4-1 16h-1l-1-11v-20l-1-5 1-19z" fill="#71D7D1"/>
<path transform="translate(814,500)" d="m0 0h1v19l-1 1h-39l-20-1h-48v-1l12-1h94z" fill="#2E3C43"/>
<path transform="translate(1307,365)" d="m0 0 3 3v41l-1 3h-2l-2-10v-24z" fill="#FEFFFE"/>
<path transform="translate(785,403)" d="m0 0h1l-1 31-1 6 4 1-80-1v-1h73v-17l2-13z" fill="#9CE0DD"/>
<path transform="translate(333,898)" d="m0 0 3 1 2 12 1 3v13l-2 2v-2h-2l-3-5 1-7 3-1v-3h-3l-1 6-3 2-1-7 2-5 1-6h2z" fill="#71D7D1"/>
<path transform="translate(1100,218)" d="m0 0 21 1-5 6-4 1 2 12-5-2-9-17z" fill="#70D6D0"/>
<path transform="translate(827,736)" d="m0 0 2 1-1 4-1 7 2 6-2 1-1 8 1 5-1 2-5-1v-23l1-7z" fill="#2E3C43"/>
<path transform="translate(863,410)" d="m0 0 2 4 1 11 1 3 1 19 1 6 3 7-3 2h-5l-1-33z" fill="#9ADFDD"/>
<path transform="translate(1163,91)" d="m0 0 13 1 2 1 12-1 5 1v1l8 1 5 2 14 3 3 2-10-1-19-3-26-2-5-1v-2h-2z" fill="#202D37"/>
<path transform="translate(388,1535)" d="m0 0 27 1 22 2 15 2-3 3 4 2-6 2-1-4-8 1-7-4-4-1-1 3h-3l-2-3h-8l-25-3z" fill="#2E3C43"/>
<path transform="translate(986,758)" d="m0 0h1v26l3 21 5 19 2 9-2-2-4-9-3-8-3-12-1-11 1-24z" fill="#62C6C4"/>
<path transform="translate(367,1024)" d="m0 0 4 2 1 6h-3v5l1 3 1 9h-2l-2 13-4-2 2-13-1-3v-7l2-4v-8z" fill="#2D3B42"/>
<path transform="translate(1378,796)" d="m0 0h1l2 26 2 10 1 3-3 16v15l-2-2-1-13 1-5v-16l-1-12-1-20z" fill="#2E3C43"/>
<path transform="translate(785,1150)" d="m0 0h4l1 2v6l-2 2-5 3-3 3-3 9-2 1v-8l2-6h2l1-5 3-6z" fill="#FDFDF6"/>
<path transform="translate(808,1013)" d="m0 0h1l2 17v6l-5 1-10-2 3-1v-2l5-5z" fill="#F8FCFB"/>
<path transform="translate(1237,1259)" d="m0 0 4 1-12 6-9 6-2 3h-2v2h-2v2l-11 7h-3l10-11 13-9z" fill="#6ED3CE"/>
<path transform="translate(783,1094)" d="m0 0h2v15l-3 30-2 7h-1v-10l3-35z" fill="#67CBC8"/>
<path transform="translate(301,733)" d="m0 0 4 1-2 5-2 8 1 4-3 9-2-2v-9l-3-4v-5l5-4h2z" fill="#71D7D1"/>
<path transform="translate(733,1554)" d="m0 0h4v2l2 1-2 1 4 5-2 3h-12l-2-1-1-5 4-2h5z" fill="#1A2732"/>
<path transform="translate(1371,436)" d="m0 0h1l1 7v30l1 18 1 13-2 10h-1l-1-35z" fill="#2E3C43"/>
<path transform="translate(472,160)" d="m0 0h23v2l9-1v-1h15l4 3h-50z" fill="#FEFFFE"/>
<path transform="translate(1e3 695)" d="m0 0 1 2-9 27-6 25h-2l1-10 8-29 4-11z" fill="#6ACFCB"/>
<path transform="translate(676,1174)" d="m0 0h3l13 30 1 8-2-1v-2h-2l-3-9-5-13-1-1v-5h-2v-3h-2z" fill="#6ED3CE"/>
<path transform="translate(356,1233)" d="m0 0h1v26l-1 11-1 27-2-1v-16l1-26v-9l1-11z" fill="#2E3C43"/>
<path transform="translate(139,1349)" d="m0 0 2 1 1 14 3 10-8-4 2-3-3-4h-4v-3l-2-1 3-1 1-2 5 2v-5l-1-2z" fill="#1A2732"/>
<path transform="translate(1106,1399)" d="m0 0 1 3h47l17-1 12-1-4 2-16 2h-58z" fill="#2E3C43"/>
<path transform="translate(340,1108)" d="m0 0h1l1 28-1 20v18l-2-1v-14l-1-8 1-13z" fill="#71D7D1"/>
<path transform="translate(315,225)" d="m0 0 3 1-3 1v2l-4 4h-2l-1 3-8 7-6 7h-2l-2 5-4 2 2-5 11-12 12-12z" fill="#98DFDD"/>
<path transform="translate(1245,279)" d="m0 0 2 2 3 11 1 10 1 54-2 1-4-2h4l-1-49-2-18z" fill="#2E3C43"/>
<path transform="translate(785,403)" d="m0 0h1l-1 31-1 3h-2v-25z" fill="#94DEDC"/>
<path transform="translate(1234,938)" d="m0 0h15v13l-1 8-2-4-1-8v-2l-5-5-6-1z" fill="#71D7D1"/>
<path transform="translate(1152,1531)" d="m0 0 12 1 23 1-1 2h-23l-16-1h-6l-1-2z" fill="#2E3C43"/>
<path transform="translate(344,1388)" d="m0 0 3 2v7h-12l-4-2 2-3 8-1z" fill="#71D7D1"/>
<path transform="translate(284,1242)" d="m0 0 2 2v22l-2 22-2-2v-15l1-1v-25z" fill="#71D7D1"/>
<path transform="translate(583,92)" d="m0 0h17l9 1v2h-23l-34-1v-1z" fill="#1A2732"/>
<path transform="translate(865,1037)" d="m0 0 2 1 1 15v7l-1 7v10l-2 2z" fill="#71D7D1"/>
<path transform="translate(784,1109)" d="m0 0h1v14l-3 23-2 8h-2l-1 3v-11l1-7h1l1 6 3-24z" fill="#ABE4E4"/>
<path transform="translate(290,1065)" d="m0 0h2l2 4v14l-2 5-2-3-1-6v-12z" fill="#71D7D1"/>
<path transform="translate(331,761)" d="m0 0 4 1-1 8-2 7-4-1v-11l-2-1z" fill="#70D6D0"/>
<path transform="translate(1369,273)" d="m0 0 2 1 1 10h1v7h2v14l-2-2-2 1z" fill="#2C3941"/>
<path transform="translate(1102,219)" d="m0 0h5l3 11 4 6v2l-5-2-7-13z" fill="#9FE0DF"/>
<path transform="translate(363,1077)" d="m0 0 4 3h6l1 2v7l-3 1v-5h-4-4l-2-6z" fill="#2E3C43"/>
<path transform="translate(709,1553)" d="m0 0 5 1 3 3-4 2h-2l-3 6-4-1-1-3z" fill="#1A2732"/>
<path transform="translate(709,1028)" d="m0 0h2l4 7 33 1v1h-39l-1-1v-7z" fill="#A9E1DC"/>
<path transform="translate(1212,1216)" d="m0 0h2v2l-18 10-8 5h-2l1-3 13-8z" fill="#6CD1CC"/>
<path transform="translate(547,1573)" d="m0 0h5l-1 3 4-1-2-1 4 1 1 5h-12l-2-6z" fill="#1C2933"/>
<path transform="translate(580,323)" d="m0 0h7l3 3-1 4h-7l-4-1 1-5z" fill="#71D7D1"/>
<path transform="translate(1194,95)" d="m0 0h9l5 2 14 3 3 2-10-1-19-3-9-1v-1z" fill="#212E38"/>
<path transform="translate(1368,258)" d="m0 0 2 3 2 5 1 18-2 2v-8l-2-5-2-6v-8z" fill="#1F2C36"/>
<path transform="translate(929,782)" d="m0 0 3 1-10 12-6 4-2-1 4-4 3-5z" fill="#9CDFDE"/>
<path transform="translate(1192,97)" d="m0 0 18 2v3h-11l-9-3z" fill="#EAF8F6"/>
<path transform="translate(150,1277)" d="m0 0 2 2 1 6v15l-3 4z" fill="#FEFFFE"/>
<path transform="translate(355,790)" d="m0 0h2l1 8 2 15h-4l-1-6z" fill="#2D3B42"/>
<path transform="translate(1123,253)" d="m0 0 7 6 9 9 11 9 2 3-4-2-11-9-14-14z" fill="#62C6C4"/>
<path transform="translate(868,839)" d="m0 0 4 1-4 18-2 1v-12z" fill="#99DEDD"/>
<path transform="translate(1375,489)" d="m0 0 2 2v14l-2 18h-1l-1-11 1-11v-10z" fill="#1A2732"/>
<path transform="translate(1119,387)" d="m0 0 4 1 1 3 4 2-1 2-9-2-4-5z" fill="#71D7D1"/>
<path transform="translate(1372,1370)" d="m0 0 1 3-3 14-1 3h-2l1-9 2-9z" fill="#2E3C43"/>
<path transform="translate(483,1545)" d="m0 0h6l2 1 1 5v3l-4-2-6-4z" fill="#1A2732"/>
<path transform="translate(986,758)" d="m0 0h1v36l-2 1-1-6 1-22z" fill="#63C7C5"/>
<path transform="translate(1108,375)" d="m0 0 6 2 11 6 4 3 4 2-7-1-6-4-7-3-5-3z" fill="#71D7D1"/>
<path transform="translate(1373,283)" d="m0 0h2l1 3 1 21-2 1v-2l-3-1 1-4 1 2 1-12h-2z" fill="#1A2732"/>
<path transform="translate(978,512)" d="m0 0 2 4 3 8 1 11h-2l-2-3-1-8-1-4z" fill="#71D7D1"/>
<path transform="translate(1043,216)" d="m0 0h3l8 19-1 4-8-18z" fill="#93DCDB"/>
<path transform="translate(170,1427)" d="m0 0h2l2 6h2l6 10 1 4h-2l-2-6-3-1-4-7v-2h-2z" fill="#2E3C43"/>
<path transform="translate(676,1174)" d="m0 0h3l6 14v2l-3-1-2-3v-5h-2v-3h-2z" fill="#6CD1CD"/>
<path transform="translate(992,724)" d="m0 0h1v7l-4 18h-2l1-10z" fill="#6BD1CC"/>
<path transform="translate(299,1227)" d="m0 0 4 1 1 7-4 2-3-7z" fill="#71D7D1"/>
<path transform="translate(1121,735)" d="m0 0 2 1-10 9-8 8v-3l9-10z" fill="#28363E"/>
<path transform="translate(164,1421)" d="m0 0 3 1 3 5v4h2l4 7-1 2-3-3-1-3-3-3-4-8z" fill="#1A2732"/>
<path transform="translate(457,1549)" d="m0 0 6 2 2 4 3 1-5 1-7-4-1-3z" fill="#2E3C43"/>
<path transform="translate(305,96)" d="m0 0h13l-1 2-16 3-3-1 4-3z" fill="#202E37"/>
<path transform="translate(767,1190)" d="m0 0 3 2-1 8-3 9h-1l1-13z" fill="#F1F5F1"/>
<path transform="translate(332,628)" d="m0 0 3 1 1 3v9h-1v-5l-3 1-2-1v-5z" fill="#62C6C4"/>
<path transform="translate(306,1077)" d="m0 0 2 1 1 7h-2l-1 4-3-4 2-7z" fill="#71D7D1"/>
<path transform="translate(357,941)" d="m0 0h2l2 2 3 2-3 2-2 9-2-1z" fill="#2E3C43"/>
<path transform="translate(298,761)" d="m0 0 2 3 2 10h-3l-2-3v-9z" fill="#71D7D1"/>
<path transform="translate(807,421)" d="m0 0h1l1 10v13l-4-1 1-1z" fill="#AEE2DF"/>
<path transform="translate(150,267)" d="m0 0h1v10h-2v7h-1l-1-14z" fill="#1F2C36"/>
<path transform="translate(597,92)" d="m0 0 12 1v2h-22v-1z" fill="#1F2C36"/>
<path transform="translate(1227,1544)" d="m0 0h3l3 3-2 5-3-1-1 2-1-5z" fill="#2B3941"/>
<path transform="translate(785,1088)" d="m0 0h20v1h-14v2l-7 1z" fill="#FEFEF9"/>
<path transform="translate(323,747)" d="m0 0 4 2-1 3-7 1h-2l2-4z" fill="#71D7D1"/>
<path transform="translate(1056,638)" d="m0 0h2v2l-11 7-6 4 2-4 10-7z" fill="#99DEDD"/>
<path transform="translate(1019,1573)" d="m0 0 2 4v2l5-2 2 1v2h-12l1-6z" fill="#2D3B42"/>
<path transform="translate(1306,936)" d="m0 0h6l-4 2-2 2-2 15h-1v-11l2-7z" fill="#C6EAE7"/>
<path transform="translate(783,1094)" d="m0 0h2v15l-3-1z" fill="#68CDC9"/>
<path transform="translate(360,824)" d="m0 0 1 3 5 2v3l-1 8-2-2-1-8-2-2z" fill="#1A2732"/>
<path transform="translate(1141,774)" d="m0 0 6 4-4 2-6-2 1-3z" fill="#71D7D1"/>
<path transform="translate(379,1545)" d="m0 0h3v9l-4-1v-3l-2-1z" fill="#2E3C43"/>
<path transform="translate(778,1139)" d="m0 0h1l1 7v8h-2l-1 3v-11z" fill="#8ADCD9"/>
<path transform="translate(1238,1206)" d="m0 0h2v2l-12 4h-5l2-2 7-3z" fill="#6DD2CD"/>
<path transform="translate(392,1170)" d="m0 0 2 1v15l-2 4-1-10z" fill="#2E3C43"/>
<path transform="translate(1198,1288)" d="m0 0 2 2-7 6-2 3h-2l-1 2v-4z" fill="#6ED4CE"/>
<path transform="translate(1385,883)" d="m0 0 5 2 2 2-1 10h-1l-2-9z" fill="#2E3C43"/>
<path transform="translate(566,299)" d="m0 0 1 3-3 1v3l-4 1v-6z" fill="#71D7D1"/>
<path transform="translate(1034,281)" d="m0 0 5 5h-2l3 5 1 2-4-1-3-6z" fill="#62C6C4"/>
<path transform="translate(995,1575)" d="m0 0h7l-1 3 1 2h-8z" fill="#2E3C43"/>
<path transform="translate(1106,228)" d="m0 0 5 3 3 5v2l-5-2-3-6z" fill="#94DCDB"/>
<path transform="translate(1184,92)" d="m0 0 11 1-1 3h-10l2-1v-2z" fill="#1A2732"/>
<path transform="translate(292,1157)" d="m0 0h4l1 9-4-3-2-3z" fill="#71D7D1"/>
<path transform="translate(1354,217)" d="m0 0 3 4v7h-2l-3-7v-3z" fill="#202E37"/>
<path transform="translate(585,1574)" d="m0 0h4l2 6h-6z" fill="#1A2732"/>
<path transform="translate(560,1552)" d="m0 0 7 2v2l-6 1-3-3z" fill="#1A2732"/>
<path transform="translate(1250,1544)" d="m0 0 2 2 1 4-4 3-2-8z" fill="#1A2732"/>
<path transform="translate(769,1197)" d="m0 0 3 4 1 1v6l-5-3-1-2z" fill="#F8FCF4"/>
<path transform="translate(368,1104)" d="m0 0 4 1v4h-4l-2-4z" fill="#1A2732"/>
<path transform="translate(393,1135)" d="m0 0 1 3v16l-2-2-1-6 1-9z" fill="#2E3C43"/>
<path transform="translate(1060,318)" d="m0 0 8 2-1 4-4 1-1-6z" fill="#62C6C4"/>
<path transform="translate(203,1571)" d="m0 0h2v2h2l-2 6-4-2v-4h2z" fill="#1A2732"/>
<path transform="translate(163,1412)" d="m0 0 2 4 5 8-1 3-3-5-2-1-2-8z" fill="#2E3C43"/>
<path transform="translate(778,1165)" d="m0 0 1 4-3 7h-1v-8h2z" fill="#FCFCF5"/>
</svg>
